<?xml version="1.0" encoding="utf-8"?>
<!-- Generator: Adobe Illustrator 23.1.0, SVG Export Plug-In . SVG Version: 6.00 Build 0)  -->
<svg version="1.1" id="暂无内容" xmlns="http://www.w3.org/2000/svg" xmlns:xlink="http://www.w3.org/1999/xlink" x="0px"
	 y="0px" viewBox="0 0 800 800" style="enable-background:new 0 0 800 800;" xml:space="preserve">
<style type="text/css">
	.st0{fill:url(#SVGID_1_);}
	.st1{fill:url(#SVGID_2_);}
	.st2{fill:url(#SVGID_3_);}
	.st3{fill:url(#SVGID_4_);}
	.st4{fill:url(#SVGID_5_);}
	.st5{fill:url(#SVGID_6_);}
	.st6{fill:url(#SVGID_7_);}
	.st7{fill:url(#SVGID_8_);}
	.st8{fill:url(#SVGID_9_);}
	.st9{fill:url(#SVGID_10_);}
	.st10{fill:url(#SVGID_11_);}
	.st11{fill:url(#SVGID_12_);}
	.st12{fill:#F4AFAE;}
	.st13{fill:url(#SVGID_13_);}
	.st14{fill:url(#SVGID_14_);}
	.st15{fill:url(#SVGID_15_);}
	.st16{fill:#FFFFFF;}
	.st17{fill:#FC7070;}
	.st18{fill:#FADAD4;}
	.st19{fill:url(#SVGID_16_);}
	.st20{fill:none;stroke:#2EA7E0;stroke-miterlimit:10;}
	.st21{fill:url(#SVGID_17_);}
	.st22{fill:#FFDCEE;}
	.st23{fill:url(#SVGID_18_);}
	.st24{fill:#4C2C00;}
	.st25{fill:#F48484;}
	.st26{fill:#F7B7B7;}
	.st27{fill:url(#SVGID_19_);}
	.st28{fill:url(#SVGID_20_);}
	.st29{fill:url(#SVGID_21_);}
	.st30{fill:url(#SVGID_22_);}
	.st31{fill:url(#SVGID_23_);}
	.st32{fill:url(#SVGID_24_);}
	.st33{fill:url(#SVGID_25_);}
	.st34{fill:url(#SVGID_26_);}
	.st35{fill:url(#SVGID_27_);}
	.st36{fill:url(#SVGID_28_);}
	.st37{fill:url(#SVGID_29_);}
	.st38{fill:url(#SVGID_30_);}
	.st39{fill:url(#SVGID_31_);}
	.st40{fill:url(#SVGID_32_);}
	.st41{fill:url(#SVGID_33_);}
	.st42{fill:url(#SVGID_34_);}
	.st43{fill:url(#SVGID_35_);}
	.st44{fill:url(#SVGID_36_);}
	.st45{fill:url(#SVGID_37_);}
	.st46{fill:url(#SVGID_38_);}
	.st47{fill:url(#SVGID_39_);}
	.st48{fill:url(#SVGID_40_);}
	.st49{fill:#F6F5F0;}
	.st50{fill:#F0EDE1;}
	.st51{fill:url(#SVGID_41_);}
	.st52{fill:url(#SVGID_42_);}
	.st53{fill:url(#SVGID_43_);}
	.st54{fill:url(#SVGID_44_);}
	.st55{fill:url(#SVGID_45_);}
	.st56{fill:url(#SVGID_46_);}
	.st57{fill:url(#SVGID_47_);}
	.st58{fill:url(#SVGID_48_);}
	.st59{fill:url(#SVGID_49_);}
	.st60{fill:url(#SVGID_50_);}
	.st61{fill:url(#SVGID_51_);}
	.st62{fill:url(#SVGID_52_);}
	.st63{fill:url(#SVGID_53_);}
	.st64{fill:url(#SVGID_54_);}
	.st65{fill:url(#SVGID_55_);}
	.st66{fill:url(#SVGID_56_);}
	.st67{fill:url(#SVGID_57_);}
	.st68{fill:url(#SVGID_58_);}
	.st69{fill:url(#SVGID_59_);}
	.st70{fill:url(#SVGID_60_);}
	.st71{fill:#F79C9B;}
	.st72{fill:url(#SVGID_61_);}
	.st73{fill:url(#SVGID_62_);}
	.st74{fill:url(#SVGID_63_);}
	.st75{fill:url(#SVGID_64_);}
	.st76{fill:url(#SVGID_65_);}
	.st77{fill:url(#SVGID_66_);}
	.st78{fill:url(#SVGID_67_);}
	.st79{fill:url(#SVGID_68_);}
	.st80{fill:url(#SVGID_69_);}
	.st81{fill:url(#SVGID_70_);}
	.st82{fill:url(#SVGID_71_);}
	.st83{fill:url(#SVGID_72_);}
	.st84{fill:url(#SVGID_73_);}
	.st85{fill:url(#SVGID_74_);}
	.st86{fill:url(#SVGID_75_);}
	.st87{fill:#EF6563;}
	.st88{fill:url(#SVGID_76_);}
	.st89{fill:#F18C8A;}
	.st90{fill:#F9C3C0;}
	.st91{fill:url(#SVGID_77_);}
	.st92{fill:url(#SVGID_78_);}
	.st93{fill:url(#SVGID_79_);}
	.st94{fill:url(#SVGID_80_);}
	.st95{fill:url(#SVGID_81_);}
	.st96{fill:url(#SVGID_82_);}
	.st97{fill:url(#SVGID_83_);}
	.st98{fill:url(#SVGID_84_);}
	.st99{fill:url(#SVGID_85_);}
	.st100{fill:url(#SVGID_86_);}
	.st101{fill:url(#SVGID_87_);}
	.st102{fill:url(#SVGID_88_);}
	.st103{fill:url(#SVGID_89_);}
	.st104{fill:url(#SVGID_90_);}
	.st105{fill:url(#SVGID_91_);}
	.st106{fill:url(#SVGID_92_);}
	.st107{fill:url(#SVGID_93_);}
	.st108{fill:url(#SVGID_94_);}
	.st109{fill:url(#SVGID_95_);}
	.st110{fill:url(#SVGID_96_);}
	.st111{fill:url(#SVGID_97_);}
	.st112{fill:url(#SVGID_98_);}
	.st113{fill:url(#SVGID_99_);}
	.st114{fill:url(#SVGID_100_);}
	.st115{fill:url(#SVGID_101_);}
	.st116{fill:url(#SVGID_102_);}
	.st117{fill:url(#SVGID_103_);}
	.st118{fill:#F4BAD9;}
	.st119{fill:url(#SVGID_104_);}
	.st120{fill:url(#SVGID_105_);}
	.st121{fill:url(#SVGID_106_);}
	.st122{fill:url(#SVGID_107_);}
	.st123{fill:url(#SVGID_108_);}
	.st124{fill:url(#SVGID_109_);}
	.st125{fill:url(#SVGID_110_);}
	.st126{fill:url(#SVGID_111_);}
	.st127{fill:url(#SVGID_112_);}
	.st128{fill:url(#SVGID_113_);}
	.st129{fill:url(#SVGID_114_);}
	.st130{fill:url(#SVGID_115_);}
	.st131{fill:url(#SVGID_116_);}
	.st132{fill:url(#SVGID_117_);}
	.st133{fill:url(#SVGID_118_);}
	.st134{fill:#F37170;}
	.st135{fill:#F5AEAD;}
	.st136{fill:url(#SVGID_119_);}
	.st137{fill:url(#SVGID_120_);}
	.st138{fill:url(#SVGID_121_);}
	.st139{fill:url(#SVGID_122_);}
	.st140{fill:url(#SVGID_123_);}
	.st141{fill:url(#SVGID_124_);}
	.st142{fill:url(#SVGID_125_);}
	.st143{fill:url(#SVGID_126_);}
	.st144{fill:url(#SVGID_127_);}
	.st145{fill:url(#SVGID_128_);}
	.st146{fill:url(#SVGID_129_);}
	.st147{fill:url(#SVGID_130_);}
	.st148{fill:url(#SVGID_131_);}
	.st149{fill:url(#SVGID_132_);}
	.st150{fill:url(#SVGID_133_);}
	.st151{fill:url(#SVGID_134_);}
	.st152{fill:url(#SVGID_135_);}
	.st153{fill:url(#SVGID_136_);}
	.st154{fill:url(#SVGID_137_);}
	.st155{fill:url(#SVGID_138_);}
	.st156{fill:url(#SVGID_139_);}
	.st157{fill:#F68382;}
	.st158{fill:#F7F8F8;}
	.st159{fill:#E86867;}
	.st160{fill:#B6DFFF;}
	.st161{fill:none;stroke:#4C2C00;stroke-width:6;stroke-linecap:round;stroke-miterlimit:10;}
	.st162{fill:url(#SVGID_140_);}
	.st163{fill:url(#SVGID_141_);}
	.st164{fill:url(#SVGID_142_);}
	.st165{fill:url(#SVGID_143_);}
	.st166{fill:url(#SVGID_144_);}
	.st167{fill:url(#SVGID_145_);}
	.st168{fill:url(#SVGID_146_);}
	.st169{fill:url(#SVGID_147_);}
	.st170{fill:url(#SVGID_148_);}
	.st171{fill:url(#SVGID_149_);}
	.st172{fill:url(#SVGID_150_);}
	.st173{fill:url(#SVGID_151_);}
	.st174{fill:url(#SVGID_152_);}
	.st175{fill:url(#SVGID_153_);}
	.st176{fill:url(#SVGID_154_);}
	.st177{fill:url(#SVGID_155_);}
	.st178{fill:url(#SVGID_156_);}
	.st179{fill:#F79B9A;}
	.st180{fill:url(#SVGID_157_);}
	.st181{fill:url(#SVGID_158_);}
	.st182{fill:url(#SVGID_159_);}
	.st183{fill:url(#SVGID_160_);}
	.st184{fill:url(#SVGID_161_);}
	.st185{fill:url(#SVGID_162_);}
	.st186{fill:url(#SVGID_163_);}
	.st187{fill:url(#SVGID_164_);}
	.st188{fill:url(#SVGID_165_);}
	.st189{fill:url(#SVGID_166_);}
	.st190{fill:url(#SVGID_167_);}
	.st191{fill:url(#SVGID_168_);}
	.st192{fill:url(#SVGID_169_);}
	.st193{fill:url(#SVGID_170_);}
	.st194{fill:url(#SVGID_171_);}
	.st195{fill:url(#SVGID_172_);}
	.st196{fill:url(#SVGID_173_);}
	.st197{fill:url(#SVGID_174_);}
	.st198{fill:url(#SVGID_175_);}
	.st199{fill:url(#SVGID_176_);}
	.st200{fill:url(#SVGID_177_);}
	.st201{fill:url(#SVGID_178_);}
	.st202{fill:url(#SVGID_179_);}
	.st203{fill:url(#SVGID_180_);}
	.st204{fill:url(#SVGID_181_);}
	.st205{fill:url(#SVGID_182_);}
	.st206{fill:url(#SVGID_183_);}
	.st207{fill:url(#SVGID_184_);}
	.st208{fill:url(#SVGID_185_);}
	.st209{fill:url(#SVGID_186_);}
	.st210{fill:url(#SVGID_187_);}
	.st211{fill:#EA6E6D;}
	.st212{fill:#F47E7D;}
	.st213{fill:#F48E8D;}
	.st214{fill:url(#SVGID_188_);}
	.st215{fill:url(#SVGID_189_);}
	.st216{fill:url(#SVGID_190_);}
	.st217{fill:url(#SVGID_191_);}
	.st218{fill:url(#SVGID_192_);}
	.st219{fill:url(#SVGID_193_);}
	.st220{fill:url(#SVGID_194_);}
	.st221{fill:url(#SVGID_195_);}
	.st222{fill:url(#SVGID_196_);}
	.st223{fill:url(#SVGID_197_);}
	.st224{fill:url(#SVGID_198_);}
	.st225{fill:url(#SVGID_199_);}
	.st226{fill:url(#SVGID_200_);}
	.st227{fill:url(#SVGID_201_);}
	.st228{fill:url(#SVGID_202_);}
	.st229{fill:url(#SVGID_203_);}
	.st230{fill:url(#SVGID_204_);}
	.st231{fill:url(#SVGID_205_);}
	.st232{fill:url(#SVGID_206_);}
	.st233{fill:url(#SVGID_207_);}
	.st234{fill:url(#SVGID_208_);}
	.st235{fill:url(#SVGID_209_);}
	.st236{fill:url(#SVGID_210_);}
	.st237{fill:url(#SVGID_211_);}
	.st238{fill:url(#SVGID_212_);}
	.st239{fill:url(#SVGID_213_);}
	.st240{fill:url(#SVGID_214_);}
	.st241{fill:url(#SVGID_215_);}
	.st242{fill:url(#SVGID_216_);}
	.st243{fill:url(#SVGID_217_);}
	.st244{fill:url(#SVGID_218_);}
	.st245{fill:url(#SVGID_219_);}
	.st246{fill:url(#SVGID_220_);}
	.st247{fill:url(#SVGID_221_);}
	.st248{fill:url(#SVGID_222_);}
	.st249{fill:url(#SVGID_223_);}
	.st250{fill:url(#SVGID_224_);}
	.st251{fill:url(#SVGID_225_);}
	.st252{fill:url(#SVGID_226_);}
</style>
<g>
	<g>
		<g>
			<g>
				<linearGradient id="SVGID_1_" gradientUnits="userSpaceOnUse" x1="220.4546" y1="158.1725" x2="329.1617" y2="158.1725">
					<stop  offset="0" style="stop-color:#FFF2F0"/>
					<stop  offset="1" style="stop-color:#FADAD4"/>
				</linearGradient>
				<path class="st0" d="M231.43,158.47l64.81,37.42c10.5,6.06,23.92,2.46,29.97-8.03l0,0c6.06-10.5,2.46-23.92-8.03-29.97
					l-64.81-37.42c-10.5-6.06-23.92-2.46-29.97,8.03l0,0C217.34,138.99,220.93,152.41,231.43,158.47z"/>
				<linearGradient id="SVGID_2_" gradientUnits="userSpaceOnUse" x1="630.8354" y1="528.0729" x2="739.5426" y2="528.0729">
					<stop  offset="0" style="stop-color:#FFF2F0"/>
					<stop  offset="1" style="stop-color:#FADAD4"/>
				</linearGradient>
				<path class="st1" d="M728.57,527.78l-64.81-37.42c-10.5-6.06-23.92-2.46-29.97,8.03l0,0c-6.06,10.5-2.46,23.92,8.03,29.97
					l64.81,37.42c10.5,6.06,23.92,2.46,29.97-8.03C742.66,547.26,739.06,533.84,728.57,527.78z"/>
				<linearGradient id="SVGID_3_" gradientUnits="userSpaceOnUse" x1="30.3247" y1="266.0763" x2="114.1716" y2="266.0763">
					<stop  offset="0" style="stop-color:#FFF2F0"/>
					<stop  offset="1" style="stop-color:#FADAD4"/>
				</linearGradient>
				<path class="st2" d="M38.62,265.83l50.65,29.24c7.94,4.58,18.09,1.86,22.67-6.07l0,0c4.58-7.94,1.86-18.09-6.07-22.67
					l-50.65-29.24c-7.94-4.58-18.09-1.86-22.67,6.07C27.97,251.09,30.69,261.24,38.62,265.83z"/>
				<linearGradient id="SVGID_4_" gradientUnits="userSpaceOnUse" x1="478.0669" y1="117.5159" x2="561.9138" y2="117.5159">
					<stop  offset="0" style="stop-color:#FFF2F0"/>
					<stop  offset="1" style="stop-color:#FADAD4"/>
				</linearGradient>
				<path class="st3" d="M486.37,117.26l50.65,29.24c7.94,4.58,18.09,1.86,22.67-6.07l0,0c4.58-7.94,1.86-18.09-6.07-22.67
					l-50.65-29.24c-7.94-4.58-18.09-1.86-22.67,6.07C475.71,102.53,478.43,112.68,486.37,117.26z"/>
				<linearGradient id="SVGID_5_" gradientUnits="userSpaceOnUse" x1="685.1891" y1="367.0043" x2="769.036" y2="367.0043">
					<stop  offset="0" style="stop-color:#FFF2F0"/>
					<stop  offset="1" style="stop-color:#FADAD4"/>
				</linearGradient>
				<path class="st4" d="M760.74,367.26l-50.65-29.24c-7.94-4.58-18.09-1.86-22.67,6.07c-4.58,7.94-1.86,18.09,6.07,22.67
					L744.14,396c7.94,4.58,18.09,1.86,22.67-6.07h0C771.39,381.99,768.67,371.84,760.74,367.26z"/>
				<linearGradient id="SVGID_6_" gradientUnits="userSpaceOnUse" x1="643.1183" y1="437.0349" x2="719.4793" y2="437.0349">
					<stop  offset="0" style="stop-color:#FFF2F0"/>
					<stop  offset="1" style="stop-color:#FADAD4"/>
				</linearGradient>
				<path class="st5" d="M643.7,415.33L643.7,415.33c-1.19,2.06-0.48,4.7,1.58,5.89l67.74,39.11c2.06,1.19,4.7,0.48,5.89-1.58
					c1.19-2.06,0.48-4.7-1.58-5.89l-67.74-39.11C647.52,412.56,644.89,413.26,643.7,415.33z"/>
				<linearGradient id="SVGID_7_" gradientUnits="userSpaceOnUse" x1="148.1709" y1="240.0689" x2="224.5318" y2="240.0689">
					<stop  offset="0" style="stop-color:#FFF2F0"/>
					<stop  offset="1" style="stop-color:#FADAD4"/>
				</linearGradient>
				<path class="st6" d="M150.33,224.25l67.74,39.11c2.06,1.19,4.7,0.48,5.89-1.58c1.19-2.06,0.48-4.7-1.58-5.89l-67.74-39.11
					c-2.06-1.19-4.7-0.48-5.89,1.58C147.56,220.42,148.27,223.06,150.33,224.25z"/>
				<linearGradient id="SVGID_8_" gradientUnits="userSpaceOnUse" x1="32.9466" y1="487.4163" x2="61.2668" y2="487.4163">
					<stop  offset="0" style="stop-color:#FFF2F0"/>
					<stop  offset="1" style="stop-color:#FADAD4"/>
				</linearGradient>
				<path class="st7" d="M59.63,490.86l-8.04-4.64l4.64-8.04c0.91-1.57,0.37-3.57-1.2-4.48c-1.57-0.91-3.57-0.37-4.48,1.2
					l-4.64,8.04l-8.04-4.64c-1.57-0.91-3.57-0.37-4.48,1.2s-0.37,3.57,1.2,4.48l8.04,4.64l-4.64,8.04c-0.91,1.57-0.37,3.57,1.2,4.48
					s3.57,0.37,4.48-1.2l4.64-8.04l8.04,4.64c1.57,0.91,3.57,0.37,4.48-1.2C61.73,493.77,61.19,491.76,59.63,490.86z"/>
				<linearGradient id="SVGID_9_" gradientUnits="userSpaceOnUse" x1="387.4488" y1="158.1723" x2="463.8096" y2="158.1723">
					<stop  offset="0" style="stop-color:#FFF2F0"/>
					<stop  offset="1" style="stop-color:#FADAD4"/>
				</linearGradient>
				<path class="st8" d="M389.61,142.35l67.74,39.11c2.06,1.19,4.7,0.48,5.89-1.58c1.19-2.06,0.48-4.7-1.58-5.89l-67.74-39.11
					c-2.06-1.19-4.7-0.48-5.89,1.58l0,0C386.84,138.53,387.54,141.16,389.61,142.35z"/>
				<linearGradient id="SVGID_10_" gradientUnits="userSpaceOnUse" x1="623.8312" y1="195.9296" x2="645.5969" y2="195.9296">
					<stop  offset="0" style="stop-color:#FFF2F0"/>
					<stop  offset="1" style="stop-color:#FADAD4"/>
				</linearGradient>
				<path class="st9" d="M634.71,206.81c6,0,10.88-4.88,10.88-10.88c0-6-4.88-10.88-10.88-10.88s-10.88,4.88-10.88,10.88
					C623.83,201.93,628.71,206.81,634.71,206.81z M634.71,188.05c4.35,0,7.88,3.54,7.88,7.88s-3.54,7.88-7.88,7.88
					s-7.88-3.54-7.88-7.88S630.37,188.05,634.71,188.05z"/>
				<linearGradient id="SVGID_11_" gradientUnits="userSpaceOnUse" x1="93.842" y1="134.3062" x2="114.1716" y2="134.3062">
					<stop  offset="0" style="stop-color:#FFF2F0"/>
					<stop  offset="1" style="stop-color:#FADAD4"/>
				</linearGradient>
				<path class="st10" d="M104.01,144.47c5.6,0,10.17-4.56,10.17-10.16s-4.56-10.16-10.17-10.16c-5.6,0-10.16,4.56-10.16,10.16
					S98.4,144.47,104.01,144.47z M104.01,127.14c3.95,0,7.17,3.21,7.17,7.16s-3.21,7.16-7.17,7.16s-7.16-3.21-7.16-7.16
					S100.06,127.14,104.01,127.14z"/>
				<linearGradient id="SVGID_12_" gradientUnits="userSpaceOnUse" x1="710.0965" y1="253.7186" x2="728.8621" y2="253.7186">
					<stop  offset="0" style="stop-color:#FFF2F0"/>
					<stop  offset="1" style="stop-color:#FADAD4"/>
				</linearGradient>
				<path class="st11" d="M719.48,263.1c5.18,0,9.38-4.2,9.38-9.38c0-5.18-4.2-9.38-9.38-9.38s-9.38,4.2-9.38,9.38
					C710.1,258.9,714.3,263.1,719.48,263.1z"/>
				<g>
					<path class="st12" d="M696.76,600.37H75.31c-2.76,0-5,2.24-5,5s2.24,5,5,5h621.45c2.76,0,5-2.24,5-5
						S699.52,600.37,696.76,600.37z"/>
				</g>
				<g>
					<path class="st12" d="M733.52,600.37h-15.06c-2.76,0-5,2.24-5,5s2.24,5,5,5h15.06c2.76,0,5-2.24,5-5
						S736.28,600.37,733.52,600.37z"/>
				</g>
				<g>
					<path class="st12" d="M475.39,635.86H322.2c-2.76,0-5,2.24-5,5c0,2.76,2.24,5,5,5h153.19c2.76,0,5-2.24,5-5
						C480.39,638.09,478.16,635.86,475.39,635.86z"/>
				</g>
				<g>
					<path class="st12" d="M507.12,636.43h-14.87c-2.76,0-5,2.24-5,5s2.24,5,5,5h14.87c2.76,0,5-2.24,5-5
						S509.88,636.43,507.12,636.43z"/>
				</g>
				<g>
					<path class="st12" d="M679.14,636.43H524.99c-2.76,0-5,2.24-5,5s2.24,5,5,5h154.15c2.76,0,5-2.24,5-5
						S681.9,636.43,679.14,636.43z"/>
				</g>
				<g>
					<path class="st12" d="M198.88,669.81h-15.32c-2.76,0-5,2.24-5,5s2.24,5,5,5h15.32c2.76,0,5-2.24,5-5
						S201.65,669.81,198.88,669.81z"/>
				</g>
				<g>
					<path class="st12" d="M400.35,669.81H298.92c-2.65-3.92-6.67-8.17-15.78-8.17c-7.07,0-12.19,4.35-15.01,8.17h-53.67
						c-2.76,0-5,2.24-5,5s2.24,5,5,5h56.43c1.89,0,3.63-1.07,4.47-2.76c0.03-0.05,2.84-5.41,7.78-5.41c5.17,0,6.32,1.83,8.59,5.48
						l0.21,0.34c0.91,1.46,2.52,2.35,4.24,2.35h104.17c2.76,0,5-2.24,5-5S403.11,669.81,400.35,669.81z"/>
				</g>
				<linearGradient id="SVGID_13_" gradientUnits="userSpaceOnUse" x1="78.6876" y1="401.0617" x2="196.2267" y2="401.0617">
					<stop  offset="0" style="stop-color:#FFF2F0"/>
					<stop  offset="1" style="stop-color:#FADAD4"/>
				</linearGradient>
				<path class="st13" d="M147.09,444.44l-52.02-30.03c-15.67-9.04-21.03-29.08-11.99-44.74l0,0c9.04-15.67,29.08-21.03,44.74-11.99
					l52.02,30.03c15.67,9.04,21.03,29.08,11.99,44.74l0,0C182.79,448.12,162.76,453.49,147.09,444.44z"/>
			</g>
		</g>
		<linearGradient id="SVGID_14_" gradientUnits="userSpaceOnUse" x1="395.8844" y1="163.6638" x2="395.8844" y2="591.8342">
			<stop  offset="0.2961" style="stop-color:#FBEAE6"/>
			<stop  offset="1" style="stop-color:#F9C8C5"/>
		</linearGradient>
		<path class="st14" d="M635.48,591.83c26.32-42.79,41.51-93.15,41.51-147.06c0-155.25-125.86-281.11-281.11-281.11
			c-155.25,0-281.11,125.86-281.11,281.11c0,53.92,15.19,104.28,41.51,147.06H635.48z"/>
		<linearGradient id="SVGID_15_" gradientUnits="userSpaceOnUse" x1="395.8842" y1="227.2385" x2="395.8842" y2="591.8342">
			<stop  offset="0.2263" style="stop-color:#FFDBD9"/>
			<stop  offset="1" style="stop-color:#F79C9B"/>
		</linearGradient>
		<path class="st15" d="M556.16,591.83c35.55-38.72,57.26-90.36,57.26-147.06c0-120.14-97.39-217.53-217.53-217.53
			s-217.53,97.39-217.53,217.53c0,56.71,21.71,108.34,57.26,147.06H556.16z"/>
		<g>
			<path class="st16" d="M276.44,294.8c-5.79,0-10.5-4.71-10.5-10.5s4.71-10.5,10.5-10.5s10.5,4.71,10.5,10.5
				S282.23,294.8,276.44,294.8z M276.44,276.8c-4.14,0-7.5,3.36-7.5,7.5s3.36,7.5,7.5,7.5s7.5-3.36,7.5-7.5
				S280.57,276.8,276.44,276.8z"/>
		</g>
		<circle class="st16" cx="515.03" cy="362.81" r="4.6"/>
		<path class="st16" d="M586.72,446.44l-8.04-4.64l4.64-8.04c0.91-1.57,0.37-3.57-1.2-4.48c-1.57-0.91-3.57-0.37-4.48,1.2
			l-4.64,8.04l-8.04-4.64c-1.57-0.91-3.57-0.37-4.48,1.2s-0.37,3.57,1.2,4.48l8.04,4.64l-4.64,8.04c-0.91,1.57-0.37,3.57,1.2,4.48
			s3.57,0.37,4.48-1.2l4.64-8.04l8.04,4.64c1.57,0.91,3.57,0.37,4.48-1.2C588.83,449.35,588.29,447.34,586.72,446.44z"/>
		<path class="st16" d="M236.14,460.6l-8.04-4.64l4.64-8.04c0.91-1.57,0.37-3.57-1.2-4.48c-1.57-0.91-3.57-0.37-4.48,1.2l-4.64,8.04
			l-8.04-4.64c-1.57-0.91-3.57-0.37-4.48,1.2s-0.37,3.57,1.2,4.48l8.04,4.64l-4.64,8.04c-0.91,1.57-0.37,3.57,1.2,4.48
			s3.57,0.37,4.48-1.2l4.64-8.04l8.04,4.64c1.57,0.91,3.57,0.37,4.48-1.2C238.24,463.51,237.71,461.5,236.14,460.6z"/>
	</g>
	<g>
		<path class="st134" d="M167.01,566.12V342.6l62.56,17.57c0,0,18.28,26.01,33.74,41.47c-1.41,42.88,0,189.78,0,189.78
			L167.01,566.12z"/>
		<path class="st157" d="M364.52,565.42V342.6l-12.65,3.16c0,0-6.33,36.9-65.37,76.26c-8.79-7.03-16.87-15.11-16.87-15.11v182.4
			L364.52,565.42z"/>
		<path class="st134" d="M371.55,337.92v226.33l64.67,16.4l61.86-6.56V366.5C498.08,366.5,394.05,351.5,371.55,337.92z"/>
		<path class="st16" d="M397.95,440.61c-8.69-12.16-17.56-18.01-26.4-17.49v4.6c7.26-0.54,14.88,4.67,22.66,15.56
			c25.92,36.23,36.75,42.62,58.2,44.53l0.41-4.57C432.65,481.45,423.01,475.63,397.95,440.61z"/>
		<path class="st16" d="M364.52,424.91c-9.39,4.39-15.07,15.52-15.85,19.92c-1.38,7.85-3.19,13.41-15.12,19.06
			c-13.98,6.62-17.66,13.14-18.76,33.23c-1,18.14-1.54,28.14-37.95,36.79c-2.57,0.61-4.96,0.98-7.2,1.14v4.58
			c2.6-0.15,5.35-0.56,8.26-1.25c37.97-9.02,40.34-20.26,41.47-41c1-18.31,3.87-23.52,16.15-29.33
			c13.87-6.56,16.15-13.73,17.68-22.41c0.62-3.49,4.94-11.45,11.33-15.49V424.91z"/>
		<path class="st16" d="M262.89,534.73c-2.87-0.52-5.4-1.57-7.59-3.15c-10.22-7.36-11.85-25.65-13.16-40.34
			c-0.29-3.29-0.57-6.39-0.92-9.27l-0.33-2.69c-1.94-16.07-2.18-18.14-13.47-17.7c-2.14,0.08-4.8,0.19-8.1,0.1
			c-12.7-0.33-16.29-7.23-23.46-21c-2.21-4.25-4.72-9.06-7.9-14.43c-2.62-4.42-5.66-6.4-9.04-5.86c-4.39,0.69-8.43,6.24-11.91,13.46
			v12.18c4.05-11.28,8.7-20.49,12.63-21.11c1.68-0.26,3.3,1.85,4.38,3.67c3.11,5.26,5.59,10.01,7.77,14.21
			c7.49,14.39,12.01,23.07,27.41,23.47c3.44,0.09,6.19-0.02,8.39-0.1c4.26-0.16,5.69-0.14,6.3,0.73c1.05,1.49,1.57,5.8,2.44,12.94
			l0.33,2.7c0.34,2.81,0.62,5.88,0.91,9.12c1.39,15.62,3.12,35.06,15.04,43.65c2.95,2.13,6.4,3.47,10.3,4.05
			C262.91,537.83,262.9,536.29,262.89,534.73z"/>
		<path class="st134" d="M290.04,263.17c-30.16,0-54.61,24.45-54.61,54.61c0,30.16,24.91,68.49,52.48,84.33
			c33.97-23.9,56.74-54.17,56.74-84.33C344.65,287.62,320.2,263.17,290.04,263.17z M290.04,344.83c-14.93,0-27.04-12.11-27.04-27.04
			s12.11-27.04,27.04-27.04c14.93,0,27.04,12.11,27.04,27.04S304.97,344.83,290.04,344.83z"/>
	</g>
	<g>
		<path class="st16" d="M441.84,457.53c0,0-39.36-15.46-33.04-59.04c6.33-43.58,25.66-56.23,25.66-56.23l-19.33-14.06
			c0,0,4.07,18.63-19.05,25.3s-47.02-25.42-35.54-57.05c11.48-31.63,30.22-42.64,61.62-33.27c31.4,9.37,46.39,52.95,46.39,52.95
			s26.24-10.54,48.5-6.79c7.03-21.56,43.11-124.88,100.28-91.85c9.37,7.26,17.1,26.48,1.87,51.08s-47.09,54.36-56.93,58.81
			c9.84,8.2,41,30.69,41,79.9c-1.17,19.92-11.72,40.53-34.44,50.26c10.54,16.28,16.17,31.28,14.76,46.27
			c7.73,4.45,28.82,17.34-15,62.79c8.43,8.43,18.04,18.74,1.64,21.09c-16.4,2.34-34.91,3.98-39.83,4.22s-13.82,0-19.21-6.56
			c-7.5,0.23-23.9,0.94-25.07,0c-0.47,2.11-4.92,6.62-16.4,6.62c-11.48,0-30.22-0.29-37.72-1.23s-15.93-7.73-9.14-20.15
			c2.11-3.28,7.03-6.33,13.82-6.56c-6.79-6.33-36.47-46.62-10.31-62.09C426.38,485.76,433.64,463.5,441.84,457.53z"/>
		<path class="st49" d="M396.08,353.5c23.12-6.68,19.05-25.3,19.05-25.3l19.33,14.06l4.04-3.34l-17.92-17.92
			c0,0-1.23-17.22,4.04-28.12c-6.68,6.15-10.9,12.13-15.46,28.82c-2.28,9.31-9.14,19.51-23.55,17.57
			c-14.41-1.93-19.51-8.79-22.84-19.68c-2.59-8.45-2.42-17.95-0.42-27.77c-0.62,1.5-1.22,3.03-1.81,4.63
			C349.06,328.07,372.96,360.17,396.08,353.5z"/>
		<path class="st49" d="M446.3,459.52c0,0,52.48,25.07,120.2,0c-25.54,18.28-44.75,20.38-59.04,20.62
			C493.16,480.37,459.65,475.22,446.3,459.52z"/>
		<g>
			<g>
				<path class="st49" d="M449.75,565.77c-27.04-19.84-32.32-53.85-32.33-53.91c-7.63,18.44,13.65,46.92,19.27,52.15
					C436.69,564.01,444.66,565.95,449.75,565.77z"/>
				<path class="st49" d="M573.98,572.25c2.27,6.74-3.94,9.08-9.83,9.95c-5.89,0.88-17.4,1.67-29.7,1.78
					c-12.3,0.11-14.94-1.69-14.06-5.91c0.88-4.22,14.06-18.45,14.06-18.45s-12.3,12.83-32.16,12.83
					c-19.86,0-36.55-13.71-36.55-13.71s3.87,4.39,8.79,12.65c4.92,8.26,0.88,10.89-2.28,11.6c-3.16,0.7-14.41,1.23-32.86,0.88
					c-18.45-0.35-16.52-13.3-16.52-13.3c-6.79,12.42,1.64,19.21,9.14,20.15c7.5,0.94,26.24,1.23,37.72,1.23
					c11.48,0,15.93-4.51,16.4-6.62c1.17,0.94,17.57,0.23,25.07,0c5.39,6.56,14.29,6.79,19.21,6.56c4.92-0.23,23.43-1.87,39.83-4.22
					C583.08,585.84,579.98,579.13,573.98,572.25z"/>
				<path class="st49" d="M429.14,482.25c-1.72,6.62-2.76,13.58-2.76,19.67c1.76,6.27,5.8,11.83,12.65,20.27
					C426.57,506.04,429.13,482.3,429.14,482.25z"/>
				<path class="st49" d="M592.43,511.27c6.02,23.4-28.37,48-36.62,52.48c3.95,0.53,12.8,2.84,12.8,2.84
					C598.62,535.45,598.17,519.59,592.43,511.27L592.43,511.27z"/>
				<path class="st49" d="M569.3,525.12c15-12.18,14.29-21.32,14.29-21.32c0.61-6.56-0.11-13.11-2.01-19.77
					C582.39,511.35,576.33,515.28,569.3,525.12z"/>
			</g>
		</g>
		<ellipse class="st49" cx="502.53" cy="525" rx="41.23" ry="39.71"/>
		<ellipse class="st16" cx="502.53" cy="520.67" rx="37.57" ry="33.97"/>
		<path class="st49" d="M617.33,260.71c-15.23,23.55-49.5,54.83-61.53,62.38c4.83,2.98,6.47,4.27,6.47,4.27
			c9.84-4.45,41.71-34.21,56.93-58.81c15.23-24.6,7.5-43.81-1.87-51.08C617.33,217.49,632.56,237.17,617.33,260.71z"/>
	</g>
</g>
</svg>
