<?xml version="1.0" encoding="UTF-8"?>
<svg width="240px" height="160px" viewBox="0 0 240 160" version="1.1" xmlns="http://www.w3.org/2000/svg" xmlns:xlink="http://www.w3.org/1999/xlink">
    <!-- Generator: Sketch 63.1 (92452) - https://sketch.com -->
    <title>banner/13-食品保健</title>
    <desc>Created with Sketch.</desc>
    <defs>
        <linearGradient x1="56.4977248%" y1="100%" x2="56.4977248%" y2="0%" id="linearGradient-1">
            <stop stop-color="#FFD599" offset="0%"></stop>
            <stop stop-color="#FFDFB2" offset="100%"></stop>
        </linearGradient>
        <linearGradient x1="56.4977248%" y1="100%" x2="56.4977248%" y2="0%" id="linearGradient-2">
            <stop stop-color="#F7F8F9" offset="0%"></stop>
            <stop stop-color="#FFEACC" offset="100%"></stop>
        </linearGradient>
        <linearGradient x1="47.3531845%" y1="0%" x2="47.3531845%" y2="100%" id="linearGradient-3">
            <stop stop-color="#FFEACC" offset="0%"></stop>
            <stop stop-color="#FFF5E5" offset="100%"></stop>
        </linearGradient>
        <ellipse id="path-4" cx="96" cy="24.5364197" rx="96" ry="24"></ellipse>
        <filter x="-11.0%" y="-27.0%" width="122.0%" height="154.0%" filterUnits="objectBoundingBox" id="filter-6">
            <feGaussianBlur stdDeviation="4" in="SourceGraphic"></feGaussianBlur>
        </filter>
        <linearGradient x1="16.6095653%" y1="55.3148561%" x2="92.3391486%" y2="44.5635768%" id="linearGradient-7">
            <stop stop-color="#FFAB33" offset="0%"></stop>
            <stop stop-color="#FF9600" offset="100%"></stop>
        </linearGradient>
        <linearGradient x1="0%" y1="56.6750252%" x2="98.2244184%" y2="44.7007609%" id="linearGradient-8">
            <stop stop-color="#FFEACC" offset="0%"></stop>
            <stop stop-color="#FFD599" offset="100%"></stop>
        </linearGradient>
        <linearGradient x1="50%" y1="0%" x2="50%" y2="100%" id="linearGradient-9">
            <stop stop-color="#FFB54C" offset="0%"></stop>
            <stop stop-color="#FFA019" offset="100%"></stop>
        </linearGradient>
        <linearGradient x1="9.97261137%" y1="85.2721008%" x2="57.7802796%" y2="39.1334193%" id="linearGradient-10">
            <stop stop-color="#FFCA7F" offset="0%"></stop>
            <stop stop-color="#FFB54C" offset="100%"></stop>
        </linearGradient>
        <linearGradient x1="0%" y1="50.7176608%" x2="91.1936029%" y2="66.2458087%" id="linearGradient-11">
            <stop stop-color="#FFD599" offset="0%"></stop>
            <stop stop-color="#FFB54C" offset="100%"></stop>
        </linearGradient>
        <filter x="0.0%" y="0.0%" width="100.0%" height="100.0%" filterUnits="objectBoundingBox" id="filter-12">
            <feGaussianBlur stdDeviation="0" in="SourceGraphic"></feGaussianBlur>
        </filter>
        <filter x="0.0%" y="0.0%" width="100.0%" height="100.0%" filterUnits="objectBoundingBox" id="filter-13">
            <feGaussianBlur stdDeviation="0" in="SourceGraphic"></feGaussianBlur>
        </filter>
        <radialGradient cx="75.901809%" cy="50%" fx="75.901809%" fy="50%" r="55.4083017%" gradientTransform="translate(0.759018,0.500000),scale(0.923795,1.000000),rotate(65.735013),translate(-0.759018,-0.500000)" id="radialGradient-14">
            <stop stop-color="#FFCA7F" offset="0%"></stop>
            <stop stop-color="#FFB54C" offset="100%"></stop>
        </radialGradient>
        <linearGradient x1="55.6039071%" y1="25.0143148%" x2="23.6844556%" y2="61.3783959%" id="linearGradient-15">
            <stop stop-color="#FFCA7F" offset="0%"></stop>
            <stop stop-color="#FFB54C" offset="100%"></stop>
        </linearGradient>
        <linearGradient x1="33.3113301%" y1="46.0325312%" x2="63.4908643%" y2="30.7697163%" id="linearGradient-16">
            <stop stop-color="#FFCA7F" offset="0%"></stop>
            <stop stop-color="#FFB54C" offset="100%"></stop>
        </linearGradient>
        <linearGradient x1="38.5370379%" y1="44.1016296%" x2="46.439174%" y2="51.9456537%" id="linearGradient-17">
            <stop stop-color="#FFC066" offset="0%"></stop>
            <stop stop-color="#FFAB33" offset="100%"></stop>
        </linearGradient>
        <radialGradient cx="23.9569008%" cy="28.4795774%" fx="23.9569008%" fy="28.4795774%" r="63.9638313%" gradientTransform="translate(0.239569,0.284796),scale(0.744121,1.000000),rotate(93.266676),translate(-0.239569,-0.284796)" id="radialGradient-18">
            <stop stop-color="#FFC066" offset="0%"></stop>
            <stop stop-color="#FFAB33" offset="100%"></stop>
        </radialGradient>
        <radialGradient cx="27.6186346%" cy="-14.8367973%" fx="27.6186346%" fy="-14.8367973%" r="178.405877%" gradientTransform="translate(0.276186,-0.148368),scale(0.500611,1.000000),rotate(67.176683),translate(-0.276186,0.148368)" id="radialGradient-19">
            <stop stop-color="#FFC066" offset="0%"></stop>
            <stop stop-color="#FFAB33" offset="100%"></stop>
            <stop stop-color="#FFAB33" offset="100%"></stop>
        </radialGradient>
        <radialGradient cx="83.7990329%" cy="46.5646961%" fx="83.7990329%" fy="46.5646961%" r="44.9196628%" gradientTransform="translate(0.837990,0.465647),scale(0.477571,1.000000),rotate(119.427786),translate(-0.837990,-0.465647)" id="radialGradient-20">
            <stop stop-color="#FFCA7F" offset="0%"></stop>
            <stop stop-color="#FFB54C" offset="100%"></stop>
        </radialGradient>
        <radialGradient cx="74.5262016%" cy="15.4319285%" fx="74.5262016%" fy="15.4319285%" r="62.6572687%" gradientTransform="translate(0.745262,0.154319),scale(0.689859,1.000000),rotate(109.475541),translate(-0.745262,-0.154319)" id="radialGradient-21">
            <stop stop-color="#FFCA7F" offset="0%"></stop>
            <stop stop-color="#FFB54C" offset="100%"></stop>
        </radialGradient>
        <radialGradient cx="66.7295393%" cy="11.1751034%" fx="66.7295393%" fy="11.1751034%" r="67.5546397%" gradientTransform="translate(0.667295,0.111751),scale(1.000000,0.786857),rotate(71.857539),translate(-0.667295,-0.111751)" id="radialGradient-22">
            <stop stop-color="#FFCA7F" offset="0%"></stop>
            <stop stop-color="#FFB54C" offset="100%"></stop>
        </radialGradient>
        <linearGradient x1="66.880115%" y1="0%" x2="50%" y2="83.2365858%" id="linearGradient-23">
            <stop stop-color="#FFCA7F" offset="0%"></stop>
            <stop stop-color="#FFAB33" offset="100%"></stop>
        </linearGradient>
        <linearGradient x1="64.7418728%" y1="12.0602727%" x2="34.4338612%" y2="68.0067555%" id="linearGradient-24">
            <stop stop-color="#FFCA7F" offset="0%"></stop>
            <stop stop-color="#FFB54C" offset="100%"></stop>
        </linearGradient>
        <radialGradient cx="13.9002185%" cy="62.187224%" fx="13.9002185%" fy="62.187224%" r="43.2140967%" gradientTransform="translate(0.139002,0.621872),scale(0.692184,1.000000),rotate(90.000000),translate(-0.139002,-0.621872)" id="radialGradient-25">
            <stop stop-color="#FFCA7F" offset="0%"></stop>
            <stop stop-color="#FFB54C" offset="100%"></stop>
        </radialGradient>
        <radialGradient cx="55.8313558%" cy="15.4952374%" fx="55.8313558%" fy="15.4952374%" r="110.348693%" gradientTransform="translate(0.558314,0.154952),scale(0.622276,1.000000),rotate(99.096030),translate(-0.558314,-0.154952)" id="radialGradient-26">
            <stop stop-color="#FFC066" offset="0%"></stop>
            <stop stop-color="#FFAB33" offset="100%"></stop>
        </radialGradient>
        <radialGradient cx="21.6172256%" cy="27.3496257%" fx="21.6172256%" fy="27.3496257%" r="68.2299605%" gradientTransform="translate(0.216172,0.273496),scale(0.699749,1.000000),rotate(93.211736),translate(-0.216172,-0.273496)" id="radialGradient-27">
            <stop stop-color="#FFCA7F" offset="0%"></stop>
            <stop stop-color="#FFB54C" offset="100%"></stop>
        </radialGradient>
        <radialGradient cx="30.1501756%" cy="17.1593262%" fx="30.1501756%" fy="17.1593262%" r="65.9805763%" gradientTransform="translate(0.301502,0.171593),scale(0.845536,1.000000),rotate(90.000000),translate(-0.301502,-0.171593)" id="radialGradient-28">
            <stop stop-color="#FFCA7F" offset="0%"></stop>
            <stop stop-color="#FFB54C" offset="100%"></stop>
        </radialGradient>
    </defs>
    <g id="banner/13-食品保健" stroke="none" stroke-width="1" fill="none" fill-rule="evenodd">
        <g id="家居日用">
            <rect id="蒙版" fill="url(#linearGradient-1)" x="0" y="0" width="240" height="105"></rect>
            <rect id="蒙版" fill="url(#linearGradient-2)" x="0" y="105" width="240" height="55"></rect>
            <g id="编组-2" transform="translate(24.000000, 44.000000)">
                <g id="编组-15" transform="translate(0.000000, 45.000000)">
                    <path d="M0,25 L12.8417242,25.0005906 C29.4402402,17.8266485 60.4654718,13 96,13 C131.534528,13 162.55976,17.8266485 179.158276,25.0005906 L192,25 L192,37 C192,50.254834 149.019336,61 96,61 C42.980664,61 0,50.254834 0,37 L0,37 L0,25 Z" id="形状结合" fill="#FFDFB2" opacity="0.25"></path>
                    <g id="椭圆形" transform="translate(0.000000, 0.463580)">
                        <mask id="mask-5" fill="white">
                            <use xlink:href="#path-4"></use>
                        </mask>
                        <use id="蒙版" fill="url(#linearGradient-3)" xlink:href="#path-4"></use>
                        <path d="M71.6685924,31.9636626 C91.6347427,37.9303406 118.372336,37.9211711 138.616162,31.3660541 C163.148757,23.4221983 166.234038,15.2767626 161.221433,2.96571693 C158.225296,-4.39285049 142.076608,-8.98754631 122.598677,-7.97317203 C91.9855502,-6.37889757 74.7149231,-2.54071428 61.0393172,8.18301441 C49.2498807,17.427703 52.8463204,26.3388208 71.6685924,31.9636626 Z" id="路径" fill="#FFDFB2" filter="url(#filter-6)" mask="url(#mask-5)"></path>
                    </g>
                </g>
                <g id="核桃" transform="translate(48.000000, 0.000000)">
                    <path d="M0,47.2630565 C1.12330168,45.8883065 2.2574953,44.0945591 3.40258087,41.8818141 C12.2256996,31.5851725 25.8698902,21.4804389 39.453495,18.1175622 C78.9661358,6.10188667 83.3087742,10.6680121 96.0837565,17.1350889 C106.186624,25.955152 87.1033429,38.5925787 59.642928,46.0225446 C46.2279003,50.9778456 29.1486594,51.8386693 8.40520544,48.6050158 C5.34260769,47.3066897 2.54087255,46.85937 0,47.2630565 Z" id="矩形" fill="url(#linearGradient-7)"></path>
                    <path d="M96.0837565,17.1350889 C106.186624,25.955152 87.1033429,38.5925787 59.642928,46.0225446 C46.2279003,50.9778456 29.1486594,51.8386693 8.40520544,48.6050158 C5.34260769,47.3066897 2.54087255,46.85937 0,47.2630565 C1.12330168,45.8883065 2.2574953,44.0945591 3.40258087,41.8818141 C12.2256996,31.5851725 25.8698902,21.4804389 39.453495,18.1175622 C78.9661358,6.10188667 84.4975788,10.1098673 96.0837565,17.1350889 Z M83.5336802,12.7847347 C75.3385489,9.08933906 46.5913368,22.5515362 27.1626628,30.1261742 C16.2347017,34.3866476 16.669339,35.3333374 16.6341298,39.5054636 C14.3513053,40.4948181 12.8120194,42.0079997 12.0162721,44.0450084 C17.9915555,43.5810037 23.684477,44.4174303 29.0950366,46.5542881 C39.453495,48.1489095 54.2643518,45.4635803 55.7909129,42.9301731 C60.7550429,44.0450084 67.1837657,40.8606449 72.0123214,38.8759421 C76.6474563,34.9503087 81.3599475,36 85.5782197,32.7589894 C92.3739886,28.3574549 93.4558236,24.1439327 88.8237247,20.1184228 C90.8194016,19.5493482 92.0707784,18.7401136 92.5778552,17.6907191 C86.6583697,10.6317344 85.5081278,14.5084784 83.5336802,12.7847347 Z" id="形状结合" fill="url(#linearGradient-8)"></path>
                    <path d="M77.5077143,15.6134354 C79.4821619,17.3371791 81.821193,12.1553515 85.1681282,18.2971087 C84.6610514,19.3465032 85.8795836,19.9536079 88.8237247,20.1184228 C93.4558236,24.1439327 92.3739886,28.3574549 85.5782197,32.7589894 C84.4146781,33.1387866 89.4838507,27.284595 88.1548077,25.1612031 C83.3343951,25.1612031 79.710854,13.8509971 77.5077143,15.6134354 Z" id="矩形" fill="url(#linearGradient-9)"></path>
                    <path d="M12.0162721,44.0450084 C12.8120194,42.0079997 14.3513053,40.4948181 16.6341298,39.5054636 C16.669339,35.3333374 16.2347017,34.3866476 27.1626628,30.1261742 C20.1436408,33.5976164 17.2378313,37.5279253 18.4452344,41.9171011 C18.4452344,41.9171011 17.5972621,42.587156 15.9013176,43.9272657 C15.047002,43.9118526 13.7519868,43.9511002 12.0162721,44.0450084 Z" id="矩形" fill="url(#linearGradient-10)"></path>
                    <path d="M0,47.2630565 C2.59127608,47.7197387 3.88691413,49.4904272 3.88691413,52.5751221 C5.31302511,58.2470148 7.40735564,61.9013909 13.0313232,64.8515481 C15.5828442,68.8312825 23.6385691,72.8307565 32.8607338,73.2242403 C43.0841872,76.4975713 55.2005183,74.9304806 61.8675558,72.4924159 C71.8226491,69.7438953 71.8226491,68.8542772 78.5231826,64.8515481 C83.8614884,62.1020528 88.4196688,57.9420598 90.2912087,53.9183843 C100.146542,44.3851965 103.171266,20.449277 96.0837565,17.1350889 C106.186624,25.955152 87.1033429,38.5925787 59.642928,46.0225446 C55.455764,47.5692174 50.9116252,48.7169982 46.0105116,49.4658871 C35.2092132,51.1163227 22.6741112,50.8293656 8.40520544,48.6050158 C5.34260769,47.3066897 2.54087255,46.85937 0,47.2630565 Z" id="矩形" fill="url(#linearGradient-11)"></path>
                    <path d="M101.020092,30.5136323 C98.3158292,31.9607857 96.4712784,33.6496813 95.4864398,35.5803192 C94.0091818,38.476276 92.764381,39.5698116 92.0255162,39.5698116 C91.2866515,39.5698116 89.3605108,39.1772991 88.4966945,40.9676499 C87.6328781,42.7580007 85.8675242,43.564511 85.8675242,42.9854483 C85.8675242,42.4063856 87.6371218,40.6633471 88.4966945,39.5698116 C89.3562672,38.476276 91.1631145,39.1019509 92.0255162,37.674025 C92.887918,36.246099 96.6499409,32.0153112 98.3271214,31.421965 C99.4452418,31.0264008 100.342899,30.7236233 101.020092,30.5136323 Z" id="路径-15" fill="#FFAB33" transform="translate(93.443808, 36.842213) rotate(162.000000) translate(-93.443808, -36.842213) "></path>
                    <path d="M90.7227739,50.0585465 C89.5892507,51.5908139 90.2522014,51.9288904 88.3576523,53.4627303 C86.4631031,54.9965701 85.1395149,54.217155 83.941755,55.9971259 C82.7439951,57.7770968 81.8762188,58.6135653 79.7713556,58.6135653 C77.6664924,58.6135653 77.4005758,60.1403324 76.3391945,60.1403324 C75.6316069,60.1403324 72.8240092,61.2130753 67.9164014,63.3585611 C70.3358922,61.5056273 72.3112753,60.4328844 73.8425508,60.1403324 C76.1394641,59.7015043 78.7385875,58.4244876 79.7713556,57.2108067 C80.8041237,55.9971259 81.5462352,56.1937479 82.7439951,54.8282391 C83.941755,53.4627303 83.6887061,52.7120776 86.0231792,52.7120776 C88.3576523,52.7120776 91.8562971,48.5262791 90.7227739,50.0585465 Z" id="路径-16" fill="#FFB54C" transform="translate(79.429638, 56.539926) rotate(-7.000000) translate(-79.429638, -56.539926) "></path>
                    <path d="M6.23881228,50.441012 C7.98474024,51.4568517 8.3616911,51.8930476 9.69502067,53.2278138 C11.0283502,54.56258 12.1806431,56.0418755 13.0162721,56.0418755 C13.8519011,56.0418755 14.9797661,56.5094719 16.3754519,57.7181646 C17.7711376,58.9268572 18.4341834,60.8990418 20.7855835,60.8990418 C23.1369837,60.8990418 24.9884337,64.7225269 25.7603045,64.7225269 C26.5321753,64.7225269 19.5878867,62.250253 18.5104739,61.5746474 C17.4330611,60.8990418 16.3754519,60.566838 16.3754519,59.4738568 C16.3754519,58.3808756 15.6965003,59.0365736 14.3563862,57.7181646 C13.0162721,56.3997556 12.3616798,57.5211711 11.0283502,56.0418755 C9.69502067,54.56258 8.2412935,54.8973162 8.11301687,53.6869269 C7.98474024,52.4765377 4.49288432,49.4251723 6.23881228,50.441012 Z" id="路径-17" fill="#FFCA7F" filter="url(#filter-12)"></path>
                    <path d="M84.2097755,40.8438369 C82.3139734,41.5410665 78.7151785,44.0811756 77.1703255,45.1641335 C75.6254724,46.2470913 74.2338086,47.5038195 73.4108746,47.358714 C72.5879407,47.2136086 71.3960133,47.4782495 69.8116438,48.426221 C68.2272743,49.3741926 67.2318355,51.2012786 64.9161584,50.7929623 C62.6004813,50.3846459 56.5893613,54.1031953 55.829217,53.9691613 C55.0690726,53.8351274 65.8610241,52.3316234 67.0393863,51.8533725 C68.2177485,51.3751217 69.3169769,51.2316167 69.506771,50.1552404 C69.6965652,49.078864 70.2513413,49.8424992 71.8000353,48.7768281 C73.3487294,47.7111571 73.7986452,48.9292045 75.3685955,47.703913 C76.9385457,46.4786216 78.3120612,47.0607095 78.6485709,45.8909837 C78.9850806,44.721258 86.1055776,40.1466073 84.2097755,40.8438369 Z" id="路径-17" fill="#FFB54C" filter="url(#filter-13)"></path>
                    <path d="M28.5149163,68.2046717 C31.5066881,68.6469032 37.3703151,69.4554655 38.7541779,69.5765378 C40.1380408,69.6976101 47.1964325,68.9822387 49.6285207,69.1950189 C52.060609,69.407799 53.6769334,68.0592085 55.3395858,68.2046717 C57.0022383,68.350135 58.9016713,68.6602021 60.1365277,67.7624403 C60.9597653,67.1639324 62.0560909,66.5836368 63.4255045,66.0215536 C62.8027582,65.7790059 61.7398704,65.977105 60.2368413,66.6158508 C57.9822975,67.5739696 58.7397253,67.6402359 57.0770728,67.4947727 C55.4144203,67.3493094 54.2136768,66.3979591 53.2025046,67.1557919 C52.1913323,67.9136246 52.4367109,67.9350925 49.7592441,67.7008445 C47.0817772,67.4665965 48.091066,66.7369979 45.7366771,67.3645261 C43.3822881,67.9920543 41.3932885,68.4745294 40.7966875,68.4223336 C40.2000865,68.3701378 25.5231445,67.7624403 28.5149163,68.2046717 Z" id="路径-18" fill="#FFC066"></path>
                    <path d="M21.8283125,58.8590505 C23.2025483,58.8590505 29.4850808,61.8366531 30.9995885,62.4911341 C32.5140962,63.1456151 35.4953741,61.901504 37.0249677,61.901504 C38.5545612,61.901504 40.3514928,61.5021292 42.056707,61.9966316 C43.7619213,62.4911341 50.4995178,59.9836149 51.3982907,59.9836149 C52.2970636,59.9836149 53.1549722,60.0593025 55.185503,58.8590505 C57.2160337,57.6587985 54.0258208,58.8590505 51.3982907,58.8590505 C48.7707607,58.8590505 49.5662478,57.7344861 46.6640845,58.8590505 C43.7619213,59.9836149 45.2972841,60.5034972 41.9259226,60.5034972 C38.5545612,60.5034972 40.3254017,59.6951206 37.0249677,60.5034972 C33.7245336,61.3118739 33.0247474,62.1202506 30.9995885,61.3118739 C28.9744295,60.5034972 20.4540767,58.8590505 21.8283125,58.8590505 Z" id="路径-19" fill="#FFC066"></path>
                    <g id="编组" transform="translate(9.000000, 0.000000)">
                        <path d="M77.2017083,30.2758438 C75.7305856,31.6796275 72.1648939,40.1023302 67.0335632,38.6984596 C61.758205,37.8196125 61.758205,39.6554806 58.4170793,39.2297256 C57.3092694,40.7267052 52.3980267,42.2663644 49.4565688,41.1327785 C47.2073197,42.1151241 45.2132194,46.3733867 38.012544,44.7617042 C36.6499556,44.1211011 34.7518721,43.6514063 33.7029912,44.1211011 C31.344488,46.3733867 32.5180928,51.1072837 17.5173438,46.3733867 C14.2015917,45.2484741 12.3349928,44.3837274 10.6902352,39.878632 C10.1208039,38.6984596 9.91244521,35.6576252 11.4876154,33.5366344 C9.7039656,34.5064387 3.97996675,36.3742674 1.21199406,31.1904698 C0.298681151,30.2758438 -1.60375578,26.3523719 2.72461475,23.7927458 C6.31411611,22.4428002 1.21199406,20.4995926 9.20456717,18.2706915 C11.4355144,18.3020774 10.2724474,12.2206983 14.2015917,12.8004676 C15.5554224,9.72644083 19.0046219,10.8709995 20.8934911,11.1923124 C23.0095752,11.5522765 23.0095752,6.33125476 28.5895291,8.53330769 C30.3973811,9.75068269 33.010511,8.16543436 34.7518721,9.28972566 C41.5660355,11.7320019 36.2186059,-2.26302481 46.0870043,3.25871059 C50.5481934,-3.42639253 54.9745155,1.94661515 56.1847046,3.79702338 C57.3632033,1.14313643 66.4913211,2.17673185 70.0097694,7.68269751 C72.1963343,7.68269751 78.751833,12.168114 78.0724603,15.0416781 C80.4492972,18.2706915 76.4781476,22.0768809 77.2017083,22.9269343 C79.8394581,24.4197776 80.4981521,26.9346588 77.2017083,30.2758438 Z" id="矩形" fill="#FFB54C"></path>
                        <path d="M48.0722654,29 C54.7334918,29 60.3419698,37.7637998 55.5839028,39.812962 C52.986451,40.9214867 50.0909553,40.6115229 46.9994896,37.9338815 C44.8300346,36.1641576 43.4821651,29 48.0722654,29 Z" id="矩形" fill="url(#radialGradient-14)"></path>
                        <path d="M49.4565688,41.1327785 C47.2073197,42.1151241 45.2132194,46.3733867 38.012544,44.7617042 C35.8568115,44.1824248 34.5612851,39.4716911 35.0810657,37.6545671 C34.6523609,35.7255156 36.316809,33.3762213 40.9591477,33.9797469 C43.2510171,35.7255156 43.2510171,33.1853904 46.0212,33.9797469 C49.7276479,34.6614259 50.3831947,38.9953616 49.4565688,41.1327785 Z" id="矩形" fill="url(#linearGradient-15)"></path>
                        <path d="M33.7029912,44.1211011 C33.0573257,48.40235 24.8786068,51.617418 17.5173438,46.3733867 C14.1762978,42.7969811 17.5173438,40.7023342 20.3246766,39.5168055 C24.8786068,37.8372544 36.0536195,35.7594528 33.7029912,44.1211011 Z" id="矩形" fill="url(#linearGradient-16)"></path>
                        <path d="M11.4876154,33.5366344 C9.7039656,34.5064387 3.97996675,36.3742674 1.21199406,31.1904698 C0.298681151,30.2758438 -1.60375578,26.3523719 2.72461475,23.7927458 C6.31411611,22.4428002 1.21199406,20.4995926 9.20456717,18.2706915 C11.4355144,18.3020774 10.2724474,12.2206983 14.2015917,12.8004676 C15.5554224,9.72644083 19.0046219,10.8709995 20.8934911,11.1923124 C23.0095752,11.5522765 23.0095752,6.33125476 28.5895291,8.53330769 C30.3973811,9.75068269 33.010511,8.16543436 34.7518721,9.28972566 C41.5660355,11.7320019 36.2186059,-2.26302481 46.0870043,3.25871059 C50.5481934,-3.42639253 54.9745155,1.94661515 56.1847046,3.79702338 C57.3632033,1.14313643 66.4913211,2.17673185 70.0097694,7.68269751 C72.1963343,7.68269751 78.751833,12.168114 78.0724603,15.0416781 C80.4492972,18.2706915 31.620943,14.4267356 11.4876154,33.5366344 Z" id="矩形" fill="url(#linearGradient-17)"></path>
                        <path d="M22.1313212,29.1683815 C20.3476714,30.1381858 10.4077155,26.6416506 10.4077155,17.2752621 C11.1751787,15.5840236 11.2967501,12.3718405 14.2015917,12.8004676 C15.5554224,9.72644083 19.0046219,10.8709995 20.8934911,11.1923124 C23.0095752,11.5522765 23.0095752,6.33125476 28.5895291,8.53330769 C30.3973811,9.75068269 33.010511,8.16543436 34.7518721,9.28972566 C41.5660355,11.7320019 36.2186059,-2.26302481 46.0870043,3.25871059 C48.1208501,9.28972566 48.1208501,17.3373497 39.0781166,22.1675919 C32.9965905,27.785923 29.7735811,21.9145974 22.1313212,29.1683815 Z" id="矩形" fill="url(#radialGradient-18)"></path>
                        <path d="M38.3799818,7.93449566 C39.5846371,4.96728163 39.2461035,-0.569027486 46.0870043,3.25871059 C50.5481934,-3.42639253 54.9745155,1.94661515 56.1847046,3.79702338 C57.3632033,1.14313643 66.4913211,2.17673185 70.0097694,7.68269751 C72.1963343,7.68269751 78.751833,12.168114 78.0724603,15.0416781 C79.5762557,17.084635 60.5829373,16.2963271 41.3281032,20.2813737 C41.3252378,13.3860587 35.6649096,14.6220517 38.3799818,7.93449566 Z" id="矩形" fill="url(#radialGradient-19)"></path>
                        <path d="M77.2017083,22.9269343 C74.7373632,26.1039626 21.5362957,25.1922486 42.2844306,7.68269751 C49.0984375,1.16771464 51.4621061,6.74316363 51.4621061,8.53330769 C53.3885837,11.9768907 55.9060479,3.43744744 60.8586553,7.68269751 C62.0773394,6.73872568 66.4328417,5.68609999 68.1549074,8.92524697 C70.5317443,12.1542603 73.8141959,7.68269751 78.0724603,15.0416781 C80.4013707,17.8885637 76.7816067,21.6467644 77.2017083,22.9269343 Z" id="矩形" fill="url(#radialGradient-20)"></path>
                        <path d="M58.1763913,23.693985 C55.7120463,26.8710133 31.7415657,22.1675919 42.2844306,7.68269751 C49.0984375,1.16771464 51.4621061,6.74316363 51.4621061,8.53330769 C53.3885837,11.9768907 55.9060479,3.43744744 60.8586553,7.68269751 C62.0773394,6.73872568 66.4328417,5.68609999 68.1549074,8.92524697 C70.537676,18.3821631 64.059677,14.9574442 58.1763913,23.693985 Z" id="矩形" fill="url(#radialGradient-21)"></path>
                        <path d="M50.3486166,26.5630664 C47.5528463,25.5930039 35.7441859,22.4308097 46.3263919,12.078172 C53.1403988,5.56318909 55.5040674,11.1386381 55.5040674,12.9287821 C57.4581996,20.965598 49.6703762,20.965598 50.3486166,26.5630664 Z" id="矩形" fill="url(#radialGradient-22)"></path>
                        <path d="M77.2017083,30.2758438 C75.7305856,31.6796275 67.9438045,22.0276468 77.2017083,22.9269343 C79.8394581,24.4197776 80.4981521,26.9346588 77.2017083,30.2758438 Z" id="矩形" fill="url(#linearGradient-23)"></path>
                        <path d="M77.2017083,30.2758438 C75.7305856,31.6796275 72.1648939,40.1023302 67.0335632,38.6984596 C64.4288642,38.2645304 63.1102308,38.4924144 62.0405005,38.7831119 C63.1640512,36.7698028 61.6526491,33.7105374 59.0213485,32.0249733 C56.7525651,30.3112323 56.5402918,28.8885953 57.3891328,26.4793442 C62.37087,27.2988963 63.8785539,23.4224926 66.3577079,23.4224926 C67.2200073,21.6745641 70.1028385,20.9447644 71.3364046,21.2747469 C73.9159502,22.4083551 77.2017083,23.4025249 77.2017083,30.2758438 Z" id="矩形" fill="url(#linearGradient-24)"></path>
                        <path d="M36.7740404,32.6888478 C35.7665127,34.5618586 30.8535197,37.1548138 29.589617,37.1548138 C26.6204453,37.5045067 24.0445116,37.1548138 18.8227544,40.2554995 C15.9608295,41.3849335 12.3349928,44.3837274 10.6902352,39.878632 C10.1208039,38.6984596 9.91244521,35.6576252 11.4876154,33.5366344 C13.8696471,27.1284592 15.9108917,27.1284592 18.464431,25.6351541 C19.5780518,25.2630535 17.5173438,17.9228317 27.7168643,18.6512288 C30.9742933,18.6512288 32.3006156,18.0720581 33.7029912,16.8608696 C39.3767895,10.8020606 42.4075823,18.236767 41.4250548,21.2329404 C41.4250548,24.7215156 46.0702985,23.6972968 50.3335291,23.4094503 C49.6897762,29.043839 40.1418949,27.022411 36.7740404,32.6888478 Z" id="矩形" fill="url(#radialGradient-25)"></path>
                        <path d="M24.8734408,18.5325206 C26.2029469,17.5154422 31.2091558,10.6023442 35.8636722,15.5064049 C37.1285065,18.5325206 27.9451436,23.5836351 24.8734408,18.5325206 Z" id="矩形" fill="url(#radialGradient-26)"></path>
                        <path d="M36.7740404,32.6888478 C35.7665127,34.5618586 30.8535197,37.1548138 29.589617,37.1548138 C26.6204453,37.5045067 27.1281492,34.168155 22.8873236,34.6746993 C18.464431,34.9437275 17.1855352,26.3185698 18.464431,25.6351541 C19.5780518,25.2630535 17.5173438,17.9228317 27.7168643,18.6512288 C30.9742933,18.6512288 32.3006156,18.0720581 33.7029912,16.8608696 C39.3767895,10.8020606 42.4075823,18.236767 41.4250548,21.2329404 C41.4250548,24.7215156 46.0702985,23.6972968 50.3335291,23.4094503 C49.6897762,29.043839 40.1418949,27.022411 36.7740404,32.6888478 Z" id="矩形" fill="url(#radialGradient-27)"></path>
                        <path d="M33.7029912,16.8608696 C39.3767895,10.8020606 42.4075823,18.236767 41.4250548,21.2329404 C41.4250548,24.7215156 46.0702985,23.6972968 50.3335291,23.4094503 C49.839888,27.7299985 44.1105377,27.5488563 39.94686,29.7844246 C35.6363817,24.201175 29.5532475,26.6416506 33.7029912,16.8608696 Z" id="矩形" fill="url(#radialGradient-28)"></path>
                    </g>
                </g>
            </g>
        </g>
    </g>
</svg>